<?xml version="1.0" encoding="UTF-8" standalone="no"?>
<!-- Created with Inkscape (http://www.inkscape.org/) -->

<svg
   width="300mm"
   height="300mm"
   viewBox="0 0 300 300"
   version="1.1"
   id="svg1"
   xmlns="http://www.w3.org/2000/svg"
   xmlns:svg="http://www.w3.org/2000/svg">
  <defs
     id="defs1">
    <filter
       id="selectable_hidder_filter"
       width="1"
       height="1"
       x="0"
       y="0"
       style="color-interpolation-filters:sRGB">
      <feComposite
         id="boolops_hidder_primitive"
         result="composite1"
         operator="arithmetic"
         in2="SourceGraphic"
         in="BackgroundImage"
         k1="0"
         k2="0"
         k3="0"
         k4="0" />
    </filter>
  </defs>
  <g
     id="layer1">
    <path
       id="rect11"
       style="display:inline;fill:#00a99f;fill-opacity:1;stroke-width:0.264583"
       d="M 150,30.101562 C 142.31144,91.607103 100.96648,131.57358 25.966797,150 100.96648,168.42642 142.31144,208.3929 150,269.89844 157.68856,208.3929 199.03352,168.42642 274.0332,150 199.03352,131.57358 157.68856,91.607103 150,30.101562 Z" />
    <path
       id="rect9"
       style="display:inline;fill:#004c48;fill-opacity:1;stroke-width:0.866737;filter:url(#selectable_hidder_filter)"
       d="M 42.122306,43.732561 C 77.780452,32.862423 114.36821,30.244911 150,30.102058 142.31144,91.607599 100.96732,131.57358 25.967636,150 27.753349,111.16665 33.597869,75.833561 42.122306,43.732561 Z m 215.755384,0 C 222.21955,32.862423 185.63179,30.244911 150,30.102058 157.68856,91.607599 199.03268,131.57358 274.03236,150 272.24665,111.16665 266.40213,75.833561 257.87769,43.732561 Z M 42.122306,256.26744 C 77.780452,267.13758 114.36821,269.75509 150,269.89794 142.31144,208.3924 100.96732,168.42642 25.967636,150 c 1.785713,38.83335 7.630233,74.16644 16.15467,106.26744 z m 215.755384,0 C 222.21955,267.13758 185.63179,269.75509 150,269.89794 157.68856,208.3924 199.03268,168.42642 274.03236,150 c -1.78571,38.83335 -7.63023,74.16644 -16.15467,106.26744 z" />
  </g>
</svg>
